<svg xmlns="http://www.w3.org/2000/svg" width="512" height="512" viewBox="0 0 512 512" role="img" aria-labelledby="title desc">
  <title id="title">Codex Mobile Remote Control VM icon</title>
  <desc id="desc">A phone controlling a desktop VM through a remote connection signal.</desc>
  <rect width="512" height="512" rx="96" fill="#111827"/>
  <rect x="78" y="118" width="236" height="160" rx="24" fill="#F8FAFC"/>
  <rect x="98" y="140" width="196" height="98" rx="10" fill="#1D4ED8"/>
  <rect x="164" y="278" width="64" height="34" rx="10" fill="#CBD5E1"/>
  <rect x="132" y="312" width="128" height="22" rx="11" fill="#F8FAFC"/>
  <rect x="316" y="176" width="102" height="214" rx="28" fill="#F8FAFC"/>
  <rect x="334" y="212" width="66" height="124" rx="12" fill="#10B981"/>
  <circle cx="367" cy="360" r="10" fill="#64748B"/>
  <path d="M282 150c54 4 96 34 118 78" fill="none" stroke="#38BDF8" stroke-width="18" stroke-linecap="round"/>
  <path d="M270 196c34 2 61 21 75 49" fill="none" stroke="#38BDF8" stroke-width="18" stroke-linecap="round"/>
  <path d="M252 366h-88c-20 0-36-16-36-36v-24" fill="none" stroke="#A78BFA" stroke-width="18" stroke-linecap="round"/>
  <path d="M252 366l-32-30m32 30-32 30" fill="none" stroke="#A78BFA" stroke-width="18" stroke-linecap="round" stroke-linejoin="round"/>
</svg>
